<svg width="48" height="48" xmlns="http://www.w3.org/2000/svg" xmlns:xlink="http://www.w3.org/1999/xlink" data-name="Layer 1">
 <defs>
  <linearGradient y2="-0.02857" x2="0.5" y1="1.38095" x1="0.5" id="linear-gradient">
   <stop stop-color="#273a9b" offset="0"/>
   <stop stop-color="#202f65" offset="0.56"/>
   <stop stop-color="#021e2f" offset="1"/>
  </linearGradient>
  <linearGradient xlink:href="#linear-gradient" y2="16.23" x2="24.64" y1="75" x1="24.64" id="linear-gradient-2"/>
  <linearGradient y2="-1.4956" x2="0.49897" y1="1.41701" x1="0.49897" id="linear-gradient-3">
   <stop stop-color="#27e9de" offset="0"/>
   <stop stop-color="#03a4ec" offset="0.52"/>
   <stop stop-color="#2547a8" offset="1"/>
  </linearGradient>
 </defs>
 <title>arrow, pointer, right, direction, forward</title>
 <g>
  <title>Layer 1</title>
  <g transform="rotate(-179.326 24 24)" id="svg_4">
   <path id="svg_2" fill="url(#linear-gradient-2)" d="m17.39,43.92a20.86,20.86 0 0 0 14.51,-0.47l0,-19.45l-14.51,-7.12l0,27.04z" class="cls-2"/>
   <circle id="svg_1" fill="url(#linear-gradient)" r="21" cy="24" cx="24" class="cls-1"/>
   <path id="svg_3" fill="url(#linear-gradient-3)" d="m20.13,34.43l-2.35,-2.35a1.34,1.34 0 0 1 0,-1.89l6.22,-6.19l-6.19,-6.19a1.34,1.34 0 0 1 0,-1.89l2.35,-2.35a1.34,1.34 0 0 1 1.89,0l9.48,9.48a1.34,1.34 0 0 1 0,1.89l-9.53,9.49a1.34,1.34 0 0 1 -1.87,0z" class="cls-3"/>
  </g>
 </g>
</svg>